<svg width="18" height="19" viewBox="0 0 18 19" fill="none" xmlns="http://www.w3.org/2000/svg">
<g clip-path="url(#clip0_397_234)">
<path d="M15.3145 4.18641C14.1991 3.67462 13.003 3.29755 11.7524 3.08159C11.7296 3.07743 11.7069 3.08784 11.6951 3.10868C11.5413 3.38227 11.3709 3.73919 11.2516 4.01974C9.90654 3.81836 8.56837 3.81836 7.25085 4.01974C7.13151 3.73296 6.95493 3.38227 6.80041 3.10868C6.78868 3.08854 6.76593 3.07812 6.74316 3.08159C5.49326 3.29686 4.29718 3.67393 3.18109 4.18641C3.17143 4.19058 3.16315 4.19753 3.15765 4.20654C0.888924 7.59598 0.267431 10.9021 0.57232 14.1672C0.573691 14.1832 0.582665 14.1984 0.59508 14.2082C2.09192 15.3075 3.54187 15.9748 4.96489 16.4172C4.98766 16.4241 5.01179 16.4157 5.02628 16.3969C5.3629 15.9373 5.66296 15.4526 5.92024 14.9429C5.93542 14.913 5.92093 14.8776 5.8899 14.8658C5.41395 14.6852 4.96075 14.4651 4.5248 14.2152C4.49032 14.195 4.48756 14.1457 4.51928 14.122C4.61102 14.0533 4.70278 13.9818 4.79038 13.9096C4.80623 13.8964 4.82831 13.8937 4.84695 13.9019C7.71097 15.2096 10.8116 15.2096 13.6417 13.9019C13.6604 13.8929 13.6825 13.8957 13.699 13.9089C13.7866 13.9812 13.8784 14.0533 13.9708 14.122C14.0025 14.1457 14.0005 14.195 13.966 14.2152C13.53 14.47 13.0768 14.6852 12.6002 14.8651C12.5692 14.8769 12.5554 14.913 12.5705 14.9429C12.8333 15.4518 13.1333 15.9366 13.4638 16.3963C13.4776 16.4157 13.5024 16.4241 13.5251 16.4172C14.9551 15.9748 16.4051 15.3075 17.9019 14.2082C17.915 14.1984 17.9233 14.1839 17.9246 14.1679C18.2895 10.3931 17.3135 7.11406 15.3373 4.20723C15.3324 4.19753 15.3241 4.19058 15.3145 4.18641ZM6.34793 12.1791C5.48567 12.1791 4.7752 11.3875 4.7752 10.4153C4.7752 9.44311 5.47189 8.65153 6.34793 8.65153C7.23084 8.65153 7.93448 9.45002 7.92068 10.4153C7.92068 11.3875 7.22394 12.1791 6.34793 12.1791ZM12.1629 12.1791C11.3006 12.1791 10.5901 11.3875 10.5901 10.4153C10.5901 9.44311 11.2868 8.65153 12.1629 8.65153C13.0457 8.65153 13.7493 9.45002 13.7355 10.4153C13.7355 11.3875 13.0457 12.1791 12.1629 12.1791Z" fill="#0A0E17"/>
</g>
<defs>
<clipPath id="clip0_397_234">
<rect width="17.5" height="17.5" fill="white" transform="translate(0.25 0.75)"/>
</clipPath>
</defs>
</svg>
