<?xml version="1.0" encoding="UTF-8" standalone="no"?>
<svg
   width="275"
   height="67"
   viewBox="0 0 275 67"
   fill="none"
   version="1.1"
   id="svg6"
   sodipodi:docname="669e5381225682e907f1dd9d_OMRON Logo.svg"
   inkscape:version="1.4 (86a8ad7, 2024-10-11)"
   xmlns:inkscape="http://www.inkscape.org/namespaces/inkscape"
   xmlns:sodipodi="http://sodipodi.sourceforge.net/DTD/sodipodi-0.dtd"
   xmlns="http://www.w3.org/2000/svg"
   xmlns:svg="http://www.w3.org/2000/svg">
  <defs
     id="defs6" />
  <sodipodi:namedview
     id="namedview6"
     pagecolor="#ffffff"
     bordercolor="#000000"
     borderopacity="0.25"
     inkscape:showpageshadow="2"
     inkscape:pageopacity="0.0"
     inkscape:pagecheckerboard="true"
     inkscape:deskcolor="#d1d1d1"
     inkscape:zoom="3.2290909"
     inkscape:cx="104.51858"
     inkscape:cy="46.29786"
     inkscape:window-width="1920"
     inkscape:window-height="1017"
     inkscape:window-x="-8"
     inkscape:window-y="-8"
     inkscape:window-maximized="1"
     inkscape:current-layer="svg6" />
  <path
     d="M38.6954 67C24.5169 67 12.9733 55.4532 12.9733 41.2708V40.9517C12.9969 39.0252 11.9453 37.2406 10.2439 36.3306C3.9227 32.9977 0 26.462 0 19.2999C0 8.65126 8.64885 0 19.2945 0C27.2463 0 34.5009 4.9993 37.3248 12.4214C38.0101 14.2179 39.6524 15.4943 41.5665 15.707C54.5988 17.1607 64.4174 28.1521 64.4174 41.2708C64.4174 55.4532 52.8738 67 38.6954 67ZM33.2839 16.2625C32.8349 16.2625 32.3859 16.3216 31.9488 16.4398C24.257 18.508 17.8767 24.1337 14.8874 31.5086C14.2375 33.1159 14.4384 34.9478 15.4191 36.3778C16.3761 37.7724 17.9594 38.5998 19.649 38.5998C19.6962 38.5998 19.7317 38.5998 19.7789 38.5998C29.1603 38.3634 36.9821 31.4613 38.3763 22.1836C38.6363 20.4699 38.0101 18.7326 36.7104 17.5862C35.7533 16.7352 34.5363 16.2743 33.2839 16.2743V16.2625Z"
     fill="#F3FAFD"
     id="path1" />
  <text
     xml:space="preserve"
     style="font-weight:bold;font-size:42.8564px;font-family:Verdana;-inkscape-font-specification:'Verdana Bold';text-align:start;writing-mode:lr-tb;direction:ltr;text-anchor:start;fill:#f3fafd;fill-opacity:1;stroke-width:1.78568"
     x="78.866035"
     y="49.309113"
     id="text6"
     transform="scale(0.96340386,1.0379863)"><tspan
       sodipodi:role="line"
       id="tspan6"
       x="78.866035"
       y="49.309113"
       style="stroke-width:1.78568">AUREON</tspan></text>
</svg>
