<svg width="140" height="20" viewBox="0 0 140 20" fill="none" xmlns="http://www.w3.org/2000/svg">
<path d="M10.3397 7.87885H11.2038L7.19622 19.1668H4.91699L9.89325 6.07088H11.8579L16.808 19.1668H14.5288L10.3384 7.87885H10.3397ZM7.01344 0.833496C7.93856 0.833496 8.72442 1.05607 9.37101 1.50123C10.0164 1.94638 10.5411 2.68498 10.9427 3.71456L11.8591 6.07212L10.3397 7.87885L9.10864 4.76153C8.86368 4.11619 8.56277 3.62627 8.20466 3.29427C7.84655 2.96227 7.27456 2.79689 6.48871 2.79689H5.70285V0.833496H7.0122H7.01344Z" fill="white"/>
<path d="M28.6401 5.16667H32.7468L34.5468 7.84667V13.3933L33.4801 14.5H28.6401V5.16667ZM29.7068 6.12667V13.54H33.0401L33.4668 13.1V7.98L32.2268 6.12667H29.7068ZM36.5016 5.16667H42.3949V6.14H39.9816V13.5267H42.3949V14.5H36.5016V13.5267H38.9149V6.14H36.5016V5.16667ZM44.4964 5.16667H49.323L50.3897 6.76667V8.92667L49.323 10.0067H45.563V14.5H44.4964V5.16667ZM45.5764 6.12667V9.68667L46.6564 9.06H48.9097L49.323 8.63333V6.91333L48.803 6.12667H45.5764ZM52.4912 5.16667H57.3178L58.3845 6.76667V8.92667L57.3178 10.0067H53.5578V14.5H52.4912V5.16667ZM53.5712 6.12667V9.68667L54.6512 9.06H56.9045L57.3178 8.63333V6.91333L56.7978 6.12667H53.5712ZM65.2993 5.16667H66.3793V7.35333L63.9526 9.86V14.5H62.886V9.98L60.4726 6.39333V5.16667H61.5393V6.27333L63.3926 9.03333H63.4193L65.2993 7.07333V5.16667ZM76.4622 5.16667H80.9422L82.3822 7.26V8.59333L81.0622 9.94L82.3822 11.8467V14.5H81.3022V11.9667L79.9555 10.0067H78.5822L77.5289 9.35333V14.5H76.4622V5.16667ZM77.5289 6.12667V9.03333H80.6222L81.3022 8.35333V7.40667L80.4222 6.12667H77.5289ZM85.537 5.16667H89.3237L90.377 6.76667V13.3933L89.3237 14.5H85.537L84.457 12.9V6.27333L85.537 5.16667ZM85.5237 12.7667L86.0437 13.54H88.897L89.297 13.1V6.9L88.7903 6.12667H85.937L85.5237 6.56667V12.7667ZM92.4518 5.16667H93.5185V12.74L94.0651 13.5267H97.2918V12.5667H98.3718V14.5H93.5585L92.4518 12.8467V5.16667ZM101.527 5.16667H106.353V6.12667H101.927L101.513 6.56667V9.03333H104.607V10.0067H101.513V12.7667L102.033 13.54H106.353V14.5H101.513L100.447 12.9V6.27333L101.527 5.16667ZM108.455 5.16667H113.281L114.348 6.76667V8.92667L113.281 10.0067H109.521V14.5H108.455V5.16667ZM109.535 6.12667V9.68667L110.615 9.06H112.868L113.281 8.63333V6.91333L112.761 6.12667H109.535ZM116.436 5.16667H117.503V12.74L118.049 13.5267H121.276V12.5667H122.356V14.5H117.543L116.436 12.8467V5.16667ZM126.618 5.16667H130.324V14.5H129.258V10.2333H125.524V14.5H124.458V7.39333L126.618 5.16667ZM125.524 7.64667V9.27333H129.258V6.12667H127.004L125.524 7.64667ZM137.252 5.16667H138.332V7.35333L135.906 9.86V14.5H134.839V9.98L132.426 6.39333V5.16667H133.492V6.27333L135.346 9.03333H135.372L137.252 7.07333V5.16667Z" fill="#F3FAFD"/>
</svg>
