<svg width="139" height="20" viewBox="0 0 139 20" fill="none" xmlns="http://www.w3.org/2000/svg">
<path d="M14.7997 2.67103C13.4114 3.2424 12.2378 3.82118 11.2777 4.40613C10.3176 4.99108 9.54878 5.58343 8.97123 6.18195C8.39246 6.78048 7.9704 7.3864 7.70508 7.9985C7.43975 8.6106 7.30648 9.23751 7.30648 9.87676C7.30648 10.4074 7.39533 10.8467 7.5718 11.1935C7.74827 11.5403 7.98645 11.8229 8.28633 12.0413C8.58497 12.2597 8.92187 12.4461 9.29703 12.6028C9.67095 12.7595 10.056 12.9089 10.4509 13.052C10.8458 13.1952 11.2296 13.3679 11.6047 13.5728C11.9787 13.7764 12.3193 14.0356 12.6253 14.349C12.9314 14.6625 13.1732 15.0673 13.3497 15.5633C13.5262 16.0594 13.615 16.6752 13.615 17.4107V19.1668H11.3283V17.4107C11.3283 16.9208 11.2395 16.5222 11.063 16.2162C10.8865 15.9101 10.6471 15.6547 10.3485 15.451C10.0486 15.2474 9.71168 15.0734 9.33775 14.9303C8.9626 14.7871 8.5751 14.6378 8.17403 14.4811C7.77295 14.3243 7.38422 14.1343 7.0103 13.9097C6.63638 13.6851 6.29948 13.4025 5.9996 13.0619C5.69972 12.7225 5.45908 12.2931 5.2752 11.776C5.09132 11.2589 5 10.6258 5 9.87799C5 9.29304 5.10243 8.72167 5.30605 8.16387C5.50967 7.60607 5.79968 7.07172 6.1736 6.56081C6.54752 6.04991 7.00043 5.57109 7.53108 5.12189C8.06173 4.67269 8.66025 4.25434 9.32788 3.86684C9.99428 3.47934 10.7162 3.12886 11.4912 2.81541C12.2674 2.50196 13.0906 2.24404 13.9618 2.03918L14.7985 2.67226L14.7997 2.67103ZM14.7997 0.833496V2.67103H5.69478V0.833496H14.7997Z" fill="#F3FAFD"/>
<path d="M27.7568 5.16667H33.6501V6.14H31.2368V13.5267H33.6501V14.5H27.7568V13.5267H30.1701V6.14H27.7568V5.16667ZM40.5782 5.16667H41.6582V14.5H40.5782V10.94L37.3382 6.12667H36.8182V14.5H35.7516V5.16667H37.8449L40.5782 9.20667V5.16667ZM45.1864 5.16667H49.7864V6.12667H45.5864L44.9464 6.79333V9.03333H48.0397V10.0067H44.9464V14.5H43.8797V6.5L45.1864 5.16667ZM51.7412 5.16667H57.6345V6.14H55.2212V13.5267H57.6345V14.5H51.7412V13.5267H54.1545V6.14H51.7412V5.16667ZM64.5626 5.16667H65.6426V14.5H64.5626V10.94L61.3226 6.12667H60.8026V14.5H59.736V5.16667H61.8293L64.5626 9.20667V5.16667ZM67.7307 5.16667H73.6241V6.14H71.2107V13.5267H73.6241V14.5H67.7307V13.5267H70.1441V6.14H67.7307V5.16667ZM75.1922 5.16667H82.1522V6.12667H78.1789L79.2189 6.76667V14.5H78.1389V6.9L77.6322 6.12667H75.1922V5.16667ZM84.787 5.16667H89.6137V6.12667H85.187L84.7737 6.56667V9.03333H87.867V10.0067H84.7737V12.7667L85.2937 13.54H89.6137V14.5H84.7737L83.707 12.9V6.27333L84.787 5.16667ZM100.643 5.16667H104.377L105.27 6.5L104.59 7.19333L103.87 6.12667H101.043L100.643 6.55333V12.82L101.11 13.54H104.403V10.0067H102.523V9.04667H104.937L105.483 9.87333V14.5H100.603L99.5766 12.9667V6.28667L100.643 5.16667ZM109.878 5.16667H113.585V14.5H112.518V10.2333H108.785V14.5H107.718V7.39333L109.878 5.16667ZM108.785 7.64667V9.27333H112.518V6.12667H110.265L108.785 7.64667ZM115.699 5.16667H116.766V5.54L118.166 7.60667L120.526 5.16667H121.606V14.5H120.526V6.56667L119.206 7.95333V9.16667H118.046V9.14L116.766 7.24667V14.5H115.699V5.16667ZM124.761 5.16667H129.588V6.12667H125.161L124.748 6.56667V9.03333H127.841V10.0067H124.748V12.7667L125.268 13.54H129.588V14.5H124.748L123.681 12.9V6.27333L124.761 5.16667ZM132.756 5.16667H136.516L137.222 6.26L136.542 6.92667L135.996 6.12667H133.156L132.756 6.55333V8.27333L133.289 9.04667H136.636L137.582 10.46V13.5267L136.649 14.5H132.276L131.689 13.6733L132.356 12.9667L132.769 13.54H136.196L136.516 13.26V10.58L136.116 10.0067H132.756L131.689 8.42V6.27333L132.756 5.16667Z" fill="#F3FAFD"/>
</svg>
