<svg width="83" height="20" viewBox="0 0 83 20" fill="none" xmlns="http://www.w3.org/2000/svg">
<path d="M15.8236 18.7903C14.648 17.6843 13.9732 16.1247 13.9732 14.5117V5.28728C13.9732 2.83173 11.975 0.833496 9.51946 0.833496H6.74454V2.82179H9.51946C10.879 2.82179 11.9849 3.92778 11.9849 5.28728V10.5003C9.40388 10.5451 7.06888 12.1792 6.15053 14.5987L4.41699 19.1656H6.54447L8.01084 15.3046C8.63839 13.653 10.2265 12.5359 11.9862 12.4911V14.5117C11.9862 16.1918 12.5342 17.826 13.5172 19.1668H16.2237L15.8248 18.7915L15.8236 18.7903Z" fill="white"/>
<path d="M29.2819 5.16667H33.0286L33.9086 6.5L33.2286 7.22L32.5219 6.12667H29.6819L29.2686 6.56667V12.7667L29.7886 13.54H32.6019L33.4019 12.74L33.9352 13.54L33.0286 14.5H29.2686L28.2019 12.9V6.27333L29.2819 5.16667ZM37.05 5.16667H40.8367L41.89 6.76667V13.3933L40.8367 14.5H37.05L35.97 12.9V6.27333L37.05 5.16667ZM37.0367 12.7667L37.5567 13.54H40.41L40.81 13.1V6.9L40.3033 6.12667H37.45L37.0367 6.56667V12.7667ZM43.9781 5.16667H45.0448V5.54L46.4448 7.60667L48.8048 5.16667H49.8848V14.5H48.8048V6.56667L47.4848 7.95333V9.16667H46.3248V9.14L45.0448 7.24667V14.5H43.9781V5.16667ZM51.9729 5.16667H56.7996L57.8663 6.76667V8.92667L56.7996 10.0067H53.0396V14.5H51.9729V5.16667ZM53.0529 6.12667V9.68667L54.1329 9.06H56.3863L56.7996 8.63333V6.91333L56.2796 6.12667H53.0529ZM64.7944 5.16667H65.8744V14.5H64.7944V13.8467L63.7277 14.5H61.0344L59.9544 12.9V5.16667H61.0211V12.7667L61.5411 13.54H64.3677L64.7944 13.1V5.16667ZM67.4292 5.16667H74.3892V6.12667H70.4158L71.4558 6.76667V14.5H70.3758V6.9L69.8692 6.12667H67.4292V5.16667ZM77.024 5.16667H81.8506V6.12667H77.424L77.0106 6.56667V9.03333H80.104V10.0067H77.0106V12.7667L77.5306 13.54H81.8506V14.5H77.0106L75.944 12.9V6.27333L77.024 5.16667Z" fill="#F3FAFD"/>
</svg>
