<svg width="115" height="20" viewBox="0 0 115 20" fill="none" xmlns="http://www.w3.org/2000/svg">
<path d="M10.0336 18.3332C8.5759 18.3332 7.21066 18.0014 5.93459 17.3395C4.65853 16.6776 3.62892 15.7205 2.84415 14.4712C2.05938 13.2219 1.66699 11.7414 1.66699 10.031C1.66699 8.32069 2.05938 6.84165 2.84577 5.59237C3.63216 4.34309 4.66177 3.37532 5.93621 2.6921C7.21066 2.00888 8.57752 1.6665 10.0352 1.6665C11.4929 1.6665 12.8532 2.00888 14.1163 2.6921C15.3794 3.37684 16.3993 4.34309 17.1727 5.59237C17.9461 6.84165 18.3337 8.32221 18.3337 10.031C18.3337 11.7398 17.9461 13.2204 17.1727 14.4697C16.3977 15.719 15.3794 16.6761 14.1163 17.338C12.8532 17.9999 11.4912 18.3316 10.0352 18.3316L10.0336 18.3332ZM10.0336 15.929C10.9902 15.929 11.8885 15.7053 12.7316 15.2564C13.5731 14.8075 14.2623 14.1395 14.7973 13.2524C15.3324 12.3652 15.5999 11.2925 15.5999 10.031C15.5999 8.76958 15.3324 7.69681 14.7973 6.80969C14.2623 5.92257 13.5731 5.24391 12.7316 4.77372C11.8885 4.30353 10.9902 4.06919 10.0336 4.06919C9.07692 4.06919 8.17216 4.29896 7.31767 4.7585C6.46318 5.21804 5.76434 5.89213 5.21792 6.77774C4.6715 7.66486 4.3991 8.74828 4.3991 10.031C4.3991 11.3138 4.66664 12.3652 5.20171 13.2524C5.73678 14.1395 6.43724 14.8075 7.30146 15.2564C8.16568 15.7053 9.07692 15.929 10.0336 15.929Z" fill="white"/>
<path d="M28.8156 5.16667H33.6423V6.12667H29.2156L28.8023 6.56667V9.03333H31.8956V10.0067H28.8023V12.7667L29.3223 13.54H33.6423V14.5H28.8023L27.7356 12.9V6.27333L28.8156 5.16667ZM35.8771 5.16667H39.9838L41.7838 7.84667V13.3933L40.7171 14.5H35.8771V5.16667ZM36.9438 6.12667V13.54H40.2771L40.7038 13.1V7.98L39.4638 6.12667H36.9438ZM44.6719 5.16667H48.4052L49.2986 6.5L48.6186 7.19333L47.8986 6.12667H45.0719L44.6719 6.55333V12.82L45.1386 13.54H48.4319V10.0067H46.5519V9.04667H48.9652L49.5119 9.87333V14.5H44.6319L43.6052 12.9667V6.28667L44.6719 5.16667ZM52.8 5.16667H57.6267V6.12667H53.2L52.7867 6.56667V9.03333H55.88V10.0067H52.7867V12.7667L53.3067 13.54H57.6267V14.5H52.7867L51.72 12.9V6.27333L52.8 5.16667ZM59.7281 5.16667H60.7948V5.54L62.1948 7.60667L64.5548 5.16667H65.6348V14.5H64.5548V6.56667L63.2348 7.95333V9.16667H62.0748V9.14L60.7948 7.24667V14.5H59.7281V5.16667ZM69.8963 5.16667H73.6029V14.5H72.5363V10.2333H68.8029V14.5H67.7363V7.39333L69.8963 5.16667ZM68.8029 7.64667V9.27333H72.5363V6.12667H70.2829L68.8029 7.64667ZM80.5444 5.16667H81.6244V7.67333L80.2777 9.03333L81.6244 10.9933V14.5H80.5444V11.14L79.7444 10.0067H78.3444L76.7711 11.6333V14.5H75.7044V11.34L77.0511 9.98L75.7044 8.00667V5.16667H76.7711V7.87333L77.5444 9.03333H78.9844L80.5444 7.40667V5.16667ZM88.5392 5.16667H89.6192V7.67333L88.2725 9.03333L89.6192 10.9933V14.5H88.5392V11.14L87.7392 10.0067H86.3392L84.7658 11.6333V14.5H83.6992V11.34L85.0458 9.98L83.6992 8.00667V5.16667H84.7658V7.87333L85.5392 9.03333H86.9792L88.5392 7.40667V5.16667ZM91.7073 5.16667H97.6006V6.14H95.1873V13.5267H97.6006V14.5H91.7073V13.5267H94.1206V6.14H91.7073V5.16667ZM104.529 5.16667H105.609V14.5H104.529V10.94L101.289 6.12667H100.769V14.5H99.7021V5.16667H101.795L104.529 9.20667V5.16667ZM108.63 5.16667H112.364L113.257 6.5L112.577 7.19333L111.857 6.12667H109.03L108.63 6.55333V12.82L109.097 13.54H112.39V10.0067H110.51V9.04667H112.924L113.47 9.87333V14.5H108.59L107.564 12.9667V6.28667L108.63 5.16667Z" fill="#F3FAFD"/>
</svg>
