<svg width="100" height="25" viewBox="0 0 100 25" fill="none" xmlns="http://www.w3.org/2000/svg">
<path d="M14.5973 24.5C9.51704 24.5 5.38086 20.3638 5.38086 15.2836V15.1693C5.38933 14.4792 5.01254 13.8399 4.40291 13.5139C2.13796 12.3201 0.732422 9.97892 0.732422 7.41339C0.732422 3.59896 3.83138 0.5 7.64581 0.5C10.495 0.5 13.0944 2.29079 14.1062 4.94946C14.3518 5.59296 14.9402 6.05019 15.6261 6.12639C20.2957 6.64712 23.8137 10.5843 23.8137 15.2836C23.8137 20.3638 19.6776 24.5 14.5973 24.5ZM12.6583 6.32537C12.4975 6.32537 12.3366 6.34653 12.1799 6.38887C9.4239 7.12974 7.13778 9.14491 6.0667 11.7866C5.83385 12.3624 5.90582 13.0186 6.25721 13.5309C6.60012 14.0304 7.16742 14.3268 7.77282 14.3268C7.78975 14.3268 7.80245 14.3268 7.81939 14.3268C11.1808 14.2421 13.9834 11.7697 14.483 8.44638C14.5761 7.83251 14.3518 7.21018 13.8861 6.79952C13.5431 6.49471 13.1071 6.3296 12.6583 6.3296V6.32537Z" fill="#406180"/>
<path d="M57.3506 9.03023C58.2161 8.64743 59.248 8.66407 60.0801 9.03023C60.5046 9.21331 60.879 9.4796 61.1869 9.81247C61.5032 10.1453 61.7528 10.5281 61.9359 10.9526C62.119 11.3853 62.2188 11.8596 62.2188 12.3673V17.9845H64.3991V12.3673C64.3991 11.56 64.2494 10.8028 63.9498 10.1121C63.6502 9.41303 63.2341 8.79722 62.7181 8.26462C62.2022 7.73203 61.5947 7.31594 60.9123 7.01636C59.4727 6.3839 57.6752 6.42551 56.2688 7.11622C55.5198 7.48238 54.879 7.99833 54.3464 8.65575L54.1134 8.93869L53.8887 8.65575C53.3728 8.00665 52.732 7.4907 51.9831 7.12454C50.5517 6.42551 48.7958 6.37558 47.2396 7.05797L47.1231 7.08293H43.861V17.9928H46.0413V12.3756C46.0413 11.868 46.1328 11.3936 46.3242 10.9609C46.5073 10.5365 46.757 10.1537 47.0732 9.8208C47.3894 9.48792 47.7639 9.22163 48.18 9.03855C49.0288 8.66407 50.0274 8.66407 50.8846 9.03855C51.309 9.22163 51.6835 9.48792 51.9914 9.8208C52.3076 10.1537 52.5573 10.5365 52.7403 10.9609C52.9234 11.3936 53.0233 11.868 53.0233 12.3756V17.9928H55.2036V12.3756C55.2036 11.868 55.2951 11.3936 55.4865 10.9609C55.6696 10.5365 55.9193 10.1537 56.2355 9.8208C56.5517 9.48792 56.9262 9.22163 57.3423 9.03855L57.3506 9.03023Z" fill="#406180"/>
<path d="M71.0648 9.03032C71.4892 8.83891 71.9469 8.74738 72.4129 8.74738H73.528V6.56707H72.4129C71.6307 6.56707 70.8568 6.73351 70.1161 7.05805L69.9996 7.08302H66.7375V17.9929H68.9178V12.3757C68.9178 11.868 69.0093 11.3937 69.2007 10.961C69.3838 10.5366 69.6335 10.1538 69.9497 9.82088C70.2659 9.48801 70.6404 9.22172 71.0565 9.03864L71.0648 9.03032Z" fill="#406180"/>
<path d="M85.4033 14.8472C85.7112 14.1316 85.861 13.3493 85.861 12.5172C85.861 11.685 85.7029 10.9027 85.4033 10.1704C85.0954 9.4381 84.671 8.79732 84.1384 8.2564C83.6058 7.71549 82.9817 7.28276 82.266 6.96653C81.5586 6.6503 80.793 6.49219 79.9858 6.49219C79.1786 6.49219 78.413 6.6503 77.7057 6.96653C76.9983 7.28276 76.3659 7.71549 75.8333 8.2564C75.3007 8.79732 74.8763 9.4381 74.5767 10.1704C74.2688 10.8944 74.119 11.685 74.119 12.5172C74.119 13.3493 74.2771 14.1316 74.5767 14.8472C74.8846 15.5712 75.309 16.2037 75.8333 16.7446C76.3659 17.2855 76.99 17.7183 77.7057 18.0345C79.1204 18.6586 80.8513 18.6586 82.2743 18.0345C82.9817 17.7183 83.6141 17.2855 84.1467 16.7446C84.6793 16.2037 85.1037 15.5629 85.4116 14.8472H85.4033ZM83.2896 13.9402C83.1065 14.3812 82.8485 14.7724 82.5156 15.1135C82.1828 15.4547 81.8083 15.721 81.3839 15.9124C80.9595 16.1122 80.4851 16.212 79.9858 16.212C79.4865 16.212 79.0205 16.1122 78.5878 15.9124C78.1717 15.721 77.7889 15.4464 77.456 15.1135C77.1315 14.7807 76.8652 14.3812 76.6821 13.9402C76.499 13.4991 76.3991 13.0165 76.3991 12.5005C76.3991 11.9846 76.4907 11.5019 76.6821 11.0608C76.8652 10.6198 77.1315 10.2203 77.456 9.88747C77.7889 9.54628 78.1634 9.27998 78.5878 9.08858C79.4449 8.69746 80.5267 8.69746 81.3756 9.08858C81.8 9.27998 82.1745 9.5546 82.5073 9.88747C82.8402 10.2287 83.0982 10.6198 83.2812 11.0608C83.4643 11.5019 83.5642 11.9846 83.5642 12.5005C83.5642 13.0165 83.4726 13.4991 83.2812 13.9402H83.2896Z" fill="#406180"/>
<path d="M41.0981 14.8472C41.406 14.1315 41.5558 13.3493 41.5558 12.5171C41.5558 11.6849 41.3977 10.9027 41.0981 10.1704C40.7902 9.43806 40.3658 8.79729 39.8332 8.25637C39.3006 7.71546 38.6764 7.28272 37.9608 6.9665C37.2534 6.65027 36.4878 6.49216 35.6806 6.49216C34.8734 6.49216 34.1078 6.65027 33.4004 6.9665C32.6931 7.28272 32.0606 7.71546 31.528 8.25637C30.9954 8.79729 30.571 9.43806 30.2714 10.1704C29.9635 10.8944 29.8137 11.6849 29.8137 12.5171C29.8137 13.3493 29.9719 14.1315 30.2714 14.8472C30.5793 15.5712 31.0038 16.2037 31.528 16.7446C32.0606 17.2855 32.6848 17.7182 33.4004 18.0345C34.8151 18.6586 36.5461 18.6586 37.9691 18.0345C38.6764 17.7182 39.3089 17.2855 39.8415 16.7446C40.3741 16.2037 40.7985 15.5629 41.1064 14.8472H41.0981ZM38.9843 13.9401C38.8013 14.3812 38.5433 14.7723 38.2104 15.1135C37.8775 15.4547 37.5031 15.721 37.0787 15.9124C36.6542 16.1121 36.1799 16.212 35.6806 16.212C35.1813 16.212 34.7153 16.1121 34.2825 15.9124C33.8665 15.721 33.4836 15.4464 33.1508 15.1135C32.8262 14.7806 32.5599 14.3812 32.3769 13.9401C32.1938 13.4991 32.0939 13.0164 32.0939 12.5005C32.0939 11.9845 32.1855 11.5019 32.3769 11.0608C32.5599 10.6198 32.8262 10.2203 33.1508 9.88744C33.4836 9.54625 33.8581 9.27995 34.2825 9.08855C35.1397 8.69742 36.2215 8.69742 37.0703 9.08855C37.4947 9.27995 37.8692 9.55457 38.2021 9.88744C38.535 10.2286 38.7929 10.6198 38.976 11.0608C39.1591 11.5019 39.259 11.9845 39.259 12.5005C39.259 13.0164 39.1674 13.4991 38.976 13.9401H38.9843Z" fill="#406180"/>
<path d="M92.2437 9.03005C93.0926 8.65557 94.0912 8.65557 94.9483 9.03005C95.3727 9.21313 95.7472 9.47943 96.0551 9.8123C96.3713 10.1452 96.621 10.528 96.8041 10.9524C96.9871 11.3851 97.087 11.8595 97.087 12.3671V17.9843H99.2673V12.3671C99.2673 11.5599 99.1175 10.8026 98.8179 10.1119C98.5183 9.41285 98.1023 8.79704 97.5863 8.26445C97.0704 7.73185 96.4629 7.31576 95.7805 7.01618C94.3991 6.40869 92.7514 6.41701 91.3034 7.05779L91.1869 7.08275H87.9247V17.9926H90.105V12.3754C90.105 11.8678 90.1966 11.3934 90.388 10.9607C90.5711 10.5363 90.8207 10.1535 91.1369 9.82062C91.4532 9.48775 91.8276 9.22145 92.2437 9.03837V9.03005Z" fill="#406180"/>
</svg>
